<?xml version="1.0" standalone="no"?>
<!DOCTYPE svg PUBLIC "-//W3C//DTD SVG 20010904//EN"
 "http://www.w3.org/TR/2001/REC-SVG-20010904/DTD/svg10.dtd">
<svg version="1.0" xmlns="http://www.w3.org/2000/svg"
 width="522.000000pt" height="597.000000pt" viewBox="0 0 522.000000 597.000000"
 preserveAspectRatio="xMidYMid meet">

<g transform="translate(0.000000,597.000000) scale(0.100000,-0.100000)"
fill="white" stroke="none">
<path d="M1415 5964 c-178 -29 -342 -116 -456 -243 -364 -402 -208 -1036 301
-1224 60 -22 169 -44 249 -50 33 -2 34 -3 72 -111 43 -122 44 -126 26 -126
-22 0 -91 -41 -114 -69 -12 -14 -25 -40 -29 -58 -3 -18 -11 -37 -18 -42 -6 -5
-197 -75 -424 -156 l-414 -146 -62 59 c-105 101 -219 141 -322 113 -89 -24
-168 -108 -200 -214 -25 -82 -25 -238 1 -322 88 -294 331 -472 525 -384 108
49 160 134 184 302 l11 82 415 148 c309 110 419 145 430 137 49 -33 80 -43
130 -44 l55 -1 33 -120 c54 -196 107 -370 229 -755 351 -1106 413 -1350 416
-1610 2 -129 -16 -174 -78 -205 -54 -27 -242 -28 -365 -1 -257 55 -662 223
-864 359 -75 51 -78 47 108 114 48 18 52 22 142 168 51 82 91 152 88 154 -4 5
-1407 192 -1409 188 -3 -3 600 -1485 607 -1492 3 -4 17 13 31 37 24 43 66 195
108 400 l22 108 106 -103 c148 -143 275 -243 581 -457 413 -290 955 -398 1511
-303 l97 16 141 -56 c78 -32 147 -57 155 -57 9 0 34 51 68 135 l53 135 88 52
c126 75 358 260 454 362 150 158 265 349 348 581 40 108 109 386 175 695 42
198 85 358 100 374 6 5 31 -9 62 -35 180 -152 283 -224 360 -251 l78 -27 0 23
c0 21 -472 1472 -489 1504 -5 8 -173 -171 -480 -511 -261 -289 -474 -529 -474
-533 0 -5 67 -31 149 -57 l149 -48 60 22 c86 31 166 51 173 44 12 -12 3 -83
-18 -146 -76 -228 -363 -706 -492 -819 -192 -169 -294 -208 -385 -148 -57 38
-142 168 -219 338 -126 277 -884 2098 -884 2124 0 4 7 6 15 6 27 0 92 73 104
116 l11 41 413 146 c227 81 417 147 423 147 5 0 36 -27 68 -59 79 -79 150
-115 241 -119 122 -7 204 45 262 165 119 249 -18 630 -271 752 -127 62 -270
27 -348 -87 -40 -57 -68 -149 -68 -218 0 -52 -2 -55 -32 -69 -18 -8 -211 -78
-428 -154 -389 -138 -395 -140 -415 -121 -44 41 -112 51 -183 26 l-40 -14 -40
116 -41 116 66 65 c289 286 307 726 42 1042 -83 99 -237 195 -374 231 -69 19
-240 31 -300 22z m249 -95 c21 -6 34 -14 30 -18 -5 -5 -60 -16 -123 -25 -170
-26 -257 -54 -349 -115 -84 -55 -141 -72 -167 -51 -14 11 -9 17 32 47 51 36
202 111 267 133 104 34 244 47 310 29z m-9 -310 c97 -36 186 -130 219 -232 9
-26 16 -81 16 -122 0 -129 -56 -232 -166 -307 -70 -47 -119 -62 -215 -62 -63
0 -86 5 -141 31 -91 43 -141 91 -186 181 -34 71 -37 82 -37 163 1 80 4 93 38
162 89 179 283 256 472 186z m1925 -648 c5 -11 10 -28 10 -38 0 -29 -75 -93
-109 -93 -14 0 -61 50 -72 78 -13 33 5 60 44 65 84 10 116 7 127 -12z m-1640
-473 c33 -84 48 -134 41 -141 -5 -5 -13 -7 -18 -4 -17 10 -106 256 -99 272 11
29 24 7 76 -127z m1235 102 c0 -12 -758 -298 -793 -300 -8 0 -12 8 -10 17 2
13 101 54 393 160 215 78 395 141 400 139 6 -1 10 -9 10 -16z m-907 -405 c34
-93 61 -179 60 -189 -2 -15 -24 -27 -81 -48 -43 -15 -83 -26 -88 -23 -23 15
-4 35 57 57 36 13 66 28 66 32 0 4 -24 74 -53 157 -42 117 -57 148 -69 143 -8
-3 -134 -49 -280 -102 -146 -52 -267 -97 -269 -99 -3 -2 3 -28 13 -58 18 -52
17 -85 -3 -85 -5 0 -22 32 -37 71 -20 51 -25 75 -18 87 12 18 590 233 619 229
16 -2 32 -34 83 -172z m-831 -222 c5 -13 -27 -25 -475 -188 -237 -86 -326
-115 -335 -106 -6 6 -8 14 -4 17 12 12 781 293 796 291 8 -1 16 -7 18 -14z
m-1043 -99 c18 -17 22 -99 7 -123 -5 -8 -32 -16 -64 -19 -46 -4 -58 -1 -76 17
-11 11 -21 29 -21 40 0 19 40 55 95 84 38 20 40 20 59 1z m1805 -31 c5 -10
217 -535 470 -1168 396 -986 460 -1153 451 -1173 -7 -16 -17 -22 -32 -20 -20
3 -80 146 -492 1175 -401 1001 -468 1174 -457 1187 18 21 48 20 60 -1z m2449
-561 c3 -17 -55 -88 -255 -312 -219 -246 -262 -290 -285 -290 -16 0 -28 2 -28
4 0 2 -3 11 -6 19 -3 10 83 114 252 304 142 158 263 291 268 296 21 14 51 3
54 -21z m-3889 -1551 c232 -37 366 -63 371 -71 10 -17 2 -38 -19 -49 -10 -6
-149 13 -381 50 -201 32 -370 59 -376 59 -24 0 -46 27 -40 48 7 22 27 30 61
24 11 -1 184 -29 384 -61z"/>
</g>
</svg>
